<svg xmlns="http://www.w3.org/2000/svg" viewBox="0 0 375.83 58.03">
	<title>Antlify</title>
	<defs>
		<linearGradient id="grad1" x1="0%" y1="0%" x2="100%" y2="0%" gradientUnits="userSpaceOnUse">
			<stop offset="50%" style="stop-color:#160873;stop-opacity:1" />
			<stop offset="100%" style="stop-color:#f60257;stop-opacity:1" />
		</linearGradient>
	</defs>
	<g fill="url(#grad1)">
		<path d="M17.65,55.13A3.09,3.09,0,0,1,17,57.35a3.09,3.09,0,0,1-2.22.68H2.9a3,3,0,0,1-2.21-.68A3,3,0,0,1,0,55.13V33.85a23.4,23.4,0,0,1,.77-5.56A61.37,61.37,0,0,1,3.14,21l7-18.3a3.79,3.79,0,0,1,1.49-2A4.86,4.86,0,0,1,14.27,0H36a4.74,4.74,0,0,1,2.54.64,3.89,3.89,0,0,1,1.49,2L47,21a63.5,63.5,0,0,1,2.38,7.33,23.87,23.87,0,0,1,.76,5.56V55.13a2.48,2.48,0,0,1-2.9,2.9H35.06a3.52,3.52,0,0,1-2.38-.68,2.85,2.85,0,0,1-.76-2.22V43.85H17.65Zm4.6-38.2L18.46,29.18H31.11L27.32,16.93a2.92,2.92,0,0,0-.68-1,1.22,1.22,0,0,0-.85-.32h-2a1.2,1.2,0,0,0-.85.32A2.92,2.92,0,0,0,22.25,16.93Z"/>
		<path d="M75,58H63a3.09,3.09,0,0,1-2.22-.68,3,3,0,0,1-.68-2.22V2.9A3,3,0,0,1,60.73.69,3,3,0,0,1,63,0h8.38A6.49,6.49,0,0,1,74,.48a6.32,6.32,0,0,1,2.13,1.7L91.72,20.07V2.9A3,3,0,0,1,92.41.69,3,3,0,0,1,94.62,0h12.09a3,3,0,0,1,2.22.69,3,3,0,0,1,.68,2.21V55.13a2.48,2.48,0,0,1-2.9,2.9H94.62a2.48,2.48,0,0,1-2.9-2.9V45.22L77.94,28.53v26.6A2.48,2.48,0,0,1,75,58Z"/>
		<path d="M148.14,58H135.08a2.48,2.48,0,0,1-2.9-2.9V15.56H120.33a3,3,0,0,1-2.21-.69,3,3,0,0,1-.69-2.22V2.9a3,3,0,0,1,.69-2.21A3,3,0,0,1,120.33,0h42.56a3,3,0,0,1,2.21.69,3,3,0,0,1,.69,2.21v9.75a3,3,0,0,1-.69,2.22,3,3,0,0,1-2.21.69H151V55.13a2.48,2.48,0,0,1-2.9,2.9Z"/><path d="M217.53,58h-41a3.09,3.09,0,0,1-2.22-.68,3,3,0,0,1-.68-2.22V2.9a3,3,0,0,1,.68-2.21A3,3,0,0,1,176.51,0H189a3,3,0,0,1,2.22.69,3,3,0,0,1,.68,2.21V42.8h11V29.74a3,3,0,0,1,.69-2.22,3.07,3.07,0,0,1,2.22-.68h11.68a3.09,3.09,0,0,1,2.22.68,3,3,0,0,1,.68,2.22V55.13a3,3,0,0,1-.68,2.22A3.09,3.09,0,0,1,217.53,58Z"/>
		<path d="M231.23,58a2.48,2.48,0,0,1-2.9-2.9V45.54a2.48,2.48,0,0,1,2.9-2.9h8V15.56h-8a3,3,0,0,1-2.21-.69,3,3,0,0,1-.69-2.22V2.9A3,3,0,0,1,229,.69,3,3,0,0,1,231.23,0h34.34a3,3,0,0,1,2.22.69,3,3,0,0,1,.68,2.21v9.75a3.07,3.07,0,0,1-.68,2.22,3,3,0,0,1-2.22.69h-7.82V42.64h7.82a2.48,2.48,0,0,1,2.9,2.9v9.59a2.48,2.48,0,0,1-2.9,2.9Z"/>
		<path d="M293.78,58H281.29a2.49,2.49,0,0,1-2.91-2.9V2.9a3,3,0,0,1,.69-2.21A3,3,0,0,1,281.29,0h35.94a3,3,0,0,1,2.22.69,3,3,0,0,1,.68,2.21v9.59a3.09,3.09,0,0,1-.68,2.22,3,3,0,0,1-2.22.68H296.68v8.39h14a3.09,3.09,0,0,1,2.22.68,3,3,0,0,1,.69,2.22v9.67a3,3,0,0,1-.69,2.22,3.09,3.09,0,0,1-2.22.68h-14V55.13a2.48,2.48,0,0,1-2.9,2.9Z"/>
		<path d="M357.61,58H344.56a2.49,2.49,0,0,1-2.91-2.9V44.81L329.32,28.29a16.45,16.45,0,0,1-2.46-4.35,19.29,19.29,0,0,1-.6-5.56V2.9a3,3,0,0,1,.68-2.21A3,3,0,0,1,329.16,0h12.41a3,3,0,0,1,2.22.69,3,3,0,0,1,.68,2.21V16.12a16.68,16.68,0,0,0,.09,1.69,3.36,3.36,0,0,0,.64,1.69l3.71,5.81a3.38,3.38,0,0,0,.84,1.05,1.85,1.85,0,0,0,1.09.32h.81a1.85,1.85,0,0,0,1.09-.32,3.38,3.38,0,0,0,.84-1.05l3.71-5.81a3.36,3.36,0,0,0,.64-1.69,16.68,16.68,0,0,0,.09-1.69V2.9A3,3,0,0,1,358.7.69,3,3,0,0,1,360.92,0h12a3,3,0,0,1,2.21.69,3,3,0,0,1,.69,2.21V18.38a18,18,0,0,1-.65,5.56,18,18,0,0,1-2.42,4.35l-12.25,16.6V55.13a2.48,2.48,0,0,1-2.9,2.9Z"/>
	</g>
</svg>